<?xml version="1.0" encoding="UTF-8" standalone="no"?>
<!-- Created with Inkscape (http://www.inkscape.org/) -->

<svg
   width="210mm"
   height="297mm"
   viewBox="0 0 210 297"
   version="1.1"
   id="svg5"
   xml:space="preserve"
   inkscape:version="1.2.1 (9c6d41e410, 2022-07-14)"
   sodipodi:docname="blue signal.svg"
   xmlns:inkscape="http://www.inkscape.org/namespaces/inkscape"
   xmlns:sodipodi="http://sodipodi.sourceforge.net/DTD/sodipodi-0.dtd"
   xmlns="http://www.w3.org/2000/svg"
   xmlns:svg="http://www.w3.org/2000/svg"><sodipodi:namedview
     id="namedview7"
     pagecolor="#ffffff"
     bordercolor="#666666"
     borderopacity="1.0"
     inkscape:showpageshadow="2"
     inkscape:pageopacity="0.0"
     inkscape:pagecheckerboard="0"
     inkscape:deskcolor="#d1d1d1"
     inkscape:document-units="mm"
     showgrid="false"
     inkscape:zoom="22.150168"
     inkscape:cx="234.21944"
     inkscape:cy="425.16607"
     inkscape:window-width="1920"
     inkscape:window-height="964"
     inkscape:window-x="-8"
     inkscape:window-y="-8"
     inkscape:window-maximized="1"
     inkscape:current-layer="layer1" /><defs
     id="defs2" /><g
     inkscape:label="Layer 1"
     inkscape:groupmode="layer"
     id="layer1"><path
       style="fill:#000000;stroke-width:0.0333333"
       d="m 59.721629,120.02893 c -0.231454,-0.0585 -0.979881,-0.35834 -1.043279,-0.4179 -0.133439,-0.12536 -0.08674,-0.19599 0.201359,-0.30457 0.142083,-0.0536 0.258333,-0.10806 0.258333,-0.12113 0,-0.0131 -0.04616,-0.0429 -0.102582,-0.0663 -0.201859,-0.0836 -0.212529,-0.14546 -0.09541,-0.55306 0.05729,-0.19939 0.11625,-0.40753 0.131021,-0.46253 0.262761,-0.97842 0.735194,-2.31796 1.336493,-3.78952 0.0351,-0.0859 0.06382,-0.20224 0.06382,-0.25855 0,-0.17685 -0.10086,-0.78279 -0.136176,-0.81811 -0.02277,-0.0228 -0.09013,-0.003 -0.207116,0.0608 -0.778672,0.42469 -1.344324,0.67692 -1.771289,0.78985 -0.246406,0.0652 -0.31339,0.0533 -0.417373,-0.0737 -0.04977,-0.0608 -0.05988,-0.061 -0.323577,-0.005 l -0.272197,0.0575 -0.136136,-0.0943 c -0.07487,-0.0519 -0.136136,-0.1195 -0.136136,-0.15024 0,-0.0757 0.151063,-0.2116 0.333333,-0.29989 0.190455,-0.0923 0.378307,-0.19728 0.557671,-0.31179 0.07755,-0.0495 0.149625,-0.09 0.160162,-0.09 0.04137,0 0.44291,-0.28649 0.633909,-0.45228 0.516137,-0.44802 0.929377,-0.91658 1.203283,-1.36438 0.223434,-0.36529 0.517432,-1.104 0.486481,-1.22235 -0.0087,-0.0332 -0.142062,-0.1393 -0.296382,-0.2357 -0.176202,-0.11008 -0.287568,-0.20254 -0.299361,-0.24854 -0.01033,-0.0403 0.0083,-0.17819 0.04129,-0.30645 l 0.06007,-0.2332 -0.08846,-0.082 c -0.04866,-0.0451 -0.09301,-0.12312 -0.09857,-0.17339 -0.01043,-0.0944 0.01544,-0.11169 0.239899,-0.16079 0.04583,-0.01 0.153468,-0.0846 0.239187,-0.16565 0.11023,-0.10426 0.191031,-0.15152 0.276019,-0.16144 0.06609,-0.008 0.128451,-0.006 0.138579,0.004 0.01013,0.0101 0.05092,0.0214 0.09065,0.0251 0.146874,0.0136 0.249125,0.0375 0.318091,0.0744 0.03894,0.0208 0.07081,0.0289 0.07081,0.0179 0,-0.011 0.0576,0.0124 0.128003,0.052 0.130865,0.0736 0.238664,0.21566 0.238664,0.31462 0,0.0643 0.169568,0.21635 0.305943,0.27443 0.05173,0.022 0.09406,0.0532 0.09406,0.0692 0,0.0446 -0.141006,0.1637 -0.223295,0.18862 -0.08197,0.0248 -0.09057,0.0457 -0.145225,0.35213 -0.04869,0.27298 -0.04959,0.3773 -0.0034,0.39269 0.02002,0.007 0.08779,0.047 0.150585,0.0896 0.0628,0.0426 0.161808,0.0879 0.220016,0.10073 0.128323,0.0645 0.254563,0.13235 0.379844,0.1858 0.09643,0.0389 0.187451,0.0807 0.2707,0.1117 0.06215,0.0474 0.123109,0.0862 0.135461,0.0862 0.02088,0 0.32436,0.14673 0.515323,0.24915 0.206219,0.0857 0.425989,0.19858 0.6,0.30081 0.0984,0.0925 0.226388,0.15617 0.320712,0.21663 0.353014,0.20972 0.644864,0.67145 0.663046,0.93271 0.09937,0.60484 0.314078,1.32764 0.240908,1.9477 -0.02125,0.0383 -0.03552,0.0854 -0.03172,0.10463 0.0139,0.0703 -0.245936,0.28366 -0.369889,0.30378 -0.118927,0.0193 -0.123301,0.0162 -0.187884,-0.1345 -0.05346,-0.12469 -0.08211,-0.15426 -0.149479,-0.15426 -0.04584,0 -0.09712,-0.0263 -0.113953,-0.0583 -0.01684,-0.0321 -0.06333,-0.26833 -0.103316,-0.525 -0.1091,-0.70024 -0.227179,-1.16641 -0.31844,-1.25719 -0.11132,-0.11072 -0.511406,-0.27805 -0.556652,-0.23281 -0.02549,0.0255 -0.01144,0.14905 0.04887,0.42956 0.116744,0.54301 0.150873,0.7483 0.179073,1.07711 0.03915,0.45646 0.02549,0.56666 -0.07023,0.56666 -0.02808,0 -0.05339,0.0187 -0.05626,0.0417 -0.01953,0.15598 -0.01691,0.26258 0.01005,0.40833 0.01696,0.0917 0.03875,0.25667 0.04844,0.36667 0.0097,0.11 0.03292,0.26 0.05164,0.33333 0.07806,0.42031 0.269617,0.85037 0.384345,1.19661 0.106788,0.23459 0.218693,0.48701 0.31076,0.70339 0.0304,0.10268 0.09503,0.20011 0.13726,0.28152 0.130643,0.31798 0.285499,0.64591 0.4089,0.89968 0.06382,0.11084 0.135954,0.23424 0.19166,0.33444 0.03914,0.0529 0.06211,0.11983 0.05105,0.14865 -0.01106,0.0288 -0.0092,0.0524 0.004,0.0524 0.01328,0 0.04314,0.0429 0.06636,0.0953 0.04583,0.10353 0.02524,0.20465 -0.04167,0.20465 -0.02307,0 -0.07771,0.0277 -0.121434,0.0615 -0.150833,0.11663 -0.9308,0.5052 -1.014089,0.5052 -0.05722,0 -0.09573,-0.0268 -0.122339,-0.0852 -0.03358,-0.0737 -0.02425,-0.11482 0.06901,-0.30393 0.05931,-0.12028 0.102367,-0.22417 0.09567,-0.23086 -0.0067,-0.007 -0.05824,0.001 -0.114558,0.0172 -0.209382,0.06 -0.272538,-0.023 -0.626275,-0.82386 -0.08665,-0.19615 -0.16937,-0.38024 -0.18383,-0.40909 -0.06706,-0.13374 -0.466422,-1.16648 -0.466422,-1.20614 -0.176012,-0.47356 -0.333702,-0.96733 -0.465769,-1.42473 -0.102964,-0.359 -0.123697,-0.4 -0.202254,-0.4 -0.05631,0 -0.109236,0.0836 -0.279671,0.44167 -0.115623,0.24291 -0.243329,0.52416 -0.283793,0.625 -0.04046,0.10083 -0.09304,0.22833 -0.116847,0.28333 -0.04838,0.11179 -0.107998,0.26334 -0.229481,0.58333 -0.123256,0.32467 -0.464391,1.34035 -0.475812,1.41667 -0.0055,0.0367 -0.03203,0.12733 -0.05898,0.20146 -0.02695,0.0741 -0.08895,0.28414 -0.137776,0.46667 -0.04883,0.18253 -0.103509,0.38437 -0.121517,0.44854 -0.01801,0.0642 -0.04116,0.15416 -0.05144,0.2 -0.03766,0.1678 -0.122517,0.21861 -0.293075,0.17546 z"
       id="path385"
       sodipodi:nodetypes="cscscsssssccscccscsssssssccssssccccssscssscscccscccccsssscsssssscssccccccsscsssssccssccsssssssssccc" /></g></svg>
