<?xml version="1.0" encoding="UTF-8" standalone="no"?>
<!-- Created with Inkscape (http://www.inkscape.org/) -->

<svg
   width="210mm"
   height="297mm"
   viewBox="0 0 210 297"
   version="1.1"
   id="svg5"
   xml:space="preserve"
   inkscape:version="1.2.1 (9c6d41e410, 2022-07-14)"
   sodipodi:docname="red signal.svg"
   xmlns:inkscape="http://www.inkscape.org/namespaces/inkscape"
   xmlns:sodipodi="http://sodipodi.sourceforge.net/DTD/sodipodi-0.dtd"
   xmlns="http://www.w3.org/2000/svg"
   xmlns:svg="http://www.w3.org/2000/svg"><sodipodi:namedview
     id="namedview7"
     pagecolor="#ffffff"
     bordercolor="#666666"
     borderopacity="1.0"
     inkscape:showpageshadow="2"
     inkscape:pageopacity="0.0"
     inkscape:pagecheckerboard="0"
     inkscape:deskcolor="#d1d1d1"
     inkscape:document-units="mm"
     showgrid="false"
     inkscape:zoom="3.9156336"
     inkscape:cx="546.52714"
     inkscape:cy="566.31959"
     inkscape:window-width="1920"
     inkscape:window-height="964"
     inkscape:window-x="-8"
     inkscape:window-y="-8"
     inkscape:window-maximized="1"
     inkscape:current-layer="layer1" /><defs
     id="defs2" /><g
     inkscape:label="Layer 1"
     inkscape:groupmode="layer"
     id="layer1"><path
       style="fill:#000000;stroke-width:0.748312"
       d="m 122.38951,276.02773 c -2.38437,-0.96204 -2.56662,-1.53733 -3.63098,-11.46191 -0.53803,-5.01692 -2.01679,-17.37181 -3.28611,-27.45531 -3.2837,-26.08563 -3.67485,-29.32849 -4.6483,-38.53806 -0.47853,-4.52728 -1.34632,-10.42024 -1.92841,-13.09545 -0.58209,-2.67522 -1.24906,-5.79007 -1.48215,-6.92189 -0.23309,-1.13182 -0.63814,-2.05593 -0.90011,-2.05358 -0.26196,0.002 -1.04912,2.44371 -1.74924,5.42526 -1.19947,5.10815 -1.94549,10.45574 -4.72319,33.85683 -0.635093,5.35043 -1.46622,11.7485 -1.846939,14.21793 -0.717601,4.65444 -1.17663,8.31421 -1.924081,15.34039 -0.240807,2.26364 -0.9419,6.64127 -1.557985,9.72805 -0.616085,3.08679 -1.279531,8.30117 -1.474332,11.58751 -0.568193,9.58585 -0.210612,9.36523 -15.178556,9.36523 -11.617159,0 -12.757383,-0.12134 -14.574828,-1.55094 -3.600053,-2.8318 -2.457606,-5.26342 5.062651,-10.77547 l 2.918631,-2.13924 -0.506707,-43.4653 c -0.616226,-52.85981 -0.600045,-52.58189 -3.201826,-54.9944 l -1.977645,-1.83377 0.510245,-15.39377 c 0.190327,-11.23048 1.066035,-23.64508 1.185651,-34.28864 -0.02311,-1.99833 -0.05652,-2.01456 -1.154967,-0.56123 -0.622142,0.82314 -1.31111,2.33847 -1.531041,3.3674 -0.21993,1.02893 -0.670319,2.54426 -1.000863,3.36741 -1.913772,4.76579 -5.449068,18.52015 -7.501232,29.18416 -2.121799,11.02586 -3.108393,13.85827 -5.204757,14.94234 -1.360045,0.70331 -2.335961,2.0966 -2.994485,4.27517 -0.537296,1.77751 -1.479967,4.86811 -2.094826,6.86801 l -1.117924,3.63616 -3.093055,-0.49313 c -3.719354,-0.59299 -7.532111,-3.98523 -8.82056,-7.84772 -1.627644,-4.87932 -0.808764,-14.5431 2.762891,-32.60551 0.569689,-2.881 1.405446,-7.427 1.857238,-10.10221 0.451792,-2.67521 1.13768,-5.87425 1.524195,-7.10896 0.386515,-1.23472 1.906823,-7.29604 3.378461,-13.46961 1.471638,-6.173577 4.231594,-15.880761 6.133236,-21.57153 3.27806,-9.809767 3.643573,-10.505944 7.041635,-13.411895 1.971258,-1.685778 4.347242,-3.148974 5.279965,-3.251547 1.507354,-0.165768 13.497664,-2.770671 17.410407,-3.782424 0.823143,-0.212848 2.953871,-0.690368 4.734943,-1.061156 5.781239,-1.203549 10.880857,-2.92636 11.486809,-3.8806 1.053586,-1.659162 0.658852,-3.431191 -1.534877,-6.890348 -1.182579,-1.864733 -2.895188,-5.707508 -3.805793,-8.539501 -1.268868,-3.946182 -2.121389,-5.381567 -3.649277,-6.144265 -3.004906,-1.500008 -4.612714,-3.02553 -4.612714,-4.376652 0,-0.667797 2.060739,-3.028116 4.579429,-5.245154 2.518682,-2.217038 5.03851,-5.129733 5.599624,-6.472657 0.561107,-1.342923 1.615216,-2.626419 2.342455,-2.852213 2.387122,-0.741154 12.172784,-1.271553 12.172784,-0.659786 0,0.328914 1.5294,0.476387 3.39866,0.327719 4.75433,-0.378128 7.50365,1.009531 10.77578,5.43885 1.55348,2.102874 4.38759,4.811421 6.29803,6.018992 4.69913,2.970296 4.62986,4.952809 -0.26806,7.671865 -1.66815,0.926067 -2.70741,2.11148 -2.86235,3.264884 -0.48106,3.581163 -2.48601,8.603328 -4.65542,11.661295 -2.36086,3.327823 -2.83291,6.286645 -1.21693,7.627779 1.44038,1.195419 9.72396,3.570833 16.21782,4.650657 7.80687,2.188106 12.21908,3.196466 16.83491,5.594668 2.34702,0.678454 8.74844,7.233784 9.356,8.80374 5.88534,8.612613 6.8758,23.282739 7.68698,25.956809 2.03087,7.38267 3.92439,17.71996 4.63399,21.00412 0.75504,4.1888 0.77457,4.99971 1.24466,7.05757 1.11421,5.81583 0.4113,1.16613 1.62588,8.39033 -0.22348,-1.59574 0.39032,2.65455 0.61318,4.48987 0.0201,1.97046 0.49625,6.78169 1.05797,10.69162 1.23573,8.60147 0.91324,16.40194 -0.78527,18.99421 -1.3359,2.03882 -5.42535,3.76274 -7.25784,3.05955 -0.63874,-0.24511 -1.71913,-2.63127 -2.46562,-5.4456 -1.72186,-6.4916 -2.2178,-7.38594 -4.85076,-8.74749 -2.48567,-1.2854 -2.59007,-1.60443 -5.56453,-17.0054 -2.20196,-11.40116 -6.60818,-28.1261 -8.30708,-31.53163 -0.60565,-1.21404 -1.10117,-2.66072 -1.10117,-3.21485 0,-0.55412 -0.31035,-1.0075 -0.68965,-1.0075 -0.38426,0 -0.5475,2.23677 -0.36863,5.05111 0.17657,2.77811 0.70312,14.41147 1.17012,25.85193 l 0.84909,20.80081 -1.89419,2.0227 c -1.66795,1.7811 -1.95587,2.91645 -2.41062,9.5058 -0.65631,9.50996 -0.99346,22.69142 -1.50859,58.9813 l -0.41235,29.04883 3.97923,4.01113 c 3.21433,3.24009 3.99353,4.51571 4.05364,6.63614 0.0647,2.28149 -0.22413,2.72908 -2.2068,3.42025 -2.70613,0.94336 -21.93213,0.98453 -24.24357,0.0519 z"
       id="path302"
       sodipodi:nodetypes="sssssscssssssssscsscccssssssscsssssssssssssssssssssssssssccccccccssssssssssscssscsssss" /></g></svg>
