<?xml version="1.0" encoding="UTF-8" standalone="no"?>
<!-- Created with Inkscape (http://www.inkscape.org/) -->

<svg
   width="210mm"
   height="297mm"
   viewBox="0 0 210 297"
   version="1.1"
   id="svg5"
   xml:space="preserve"
   inkscape:version="1.2.1 (9c6d41e410, 2022-07-14)"
   sodipodi:docname="Yubiten.svg"
   inkscape:export-filename="Yubiten.png"
   inkscape:export-xdpi="155.625"
   inkscape:export-ydpi="155.625"
   xmlns:inkscape="http://www.inkscape.org/namespaces/inkscape"
   xmlns:sodipodi="http://sodipodi.sourceforge.net/DTD/sodipodi-0.dtd"
   xmlns:xlink="http://www.w3.org/1999/xlink"
   xmlns="http://www.w3.org/2000/svg"
   xmlns:svg="http://www.w3.org/2000/svg"><sodipodi:namedview
     id="namedview7"
     pagecolor="#ffffff"
     bordercolor="#666666"
     borderopacity="1.0"
     inkscape:showpageshadow="2"
     inkscape:pageopacity="0.0"
     inkscape:pagecheckerboard="0"
     inkscape:deskcolor="#d1d1d1"
     inkscape:document-units="mm"
     showgrid="false"
     inkscape:zoom="0.9789084"
     inkscape:cx="173.15205"
     inkscape:cy="513.32689"
     inkscape:window-width="1920"
     inkscape:window-height="964"
     inkscape:window-x="-8"
     inkscape:window-y="-8"
     inkscape:window-maximized="1"
     inkscape:current-layer="layer2" /><defs
     id="defs2"><linearGradient
       id="linearGradient3318"
       inkscape:swatch="solid"><stop
         style="stop-color:#ffc20e;stop-opacity:1;"
         offset="0"
         id="stop3316" /></linearGradient><linearGradient
       inkscape:collect="always"
       xlink:href="#linearGradient3318"
       id="linearGradient3320"
       x1="55.677292"
       y1="102.16783"
       x2="107.25941"
       y2="102.16783"
       gradientUnits="userSpaceOnUse"
       gradientTransform="translate(-163.31895,-8.3639322)" /><linearGradient
       inkscape:collect="always"
       xlink:href="#linearGradient3318"
       id="linearGradient3352"
       gradientUnits="userSpaceOnUse"
       gradientTransform="translate(24.603074,-20.132146)"
       x1="55.677292"
       y1="102.16783"
       x2="107.25941"
       y2="102.16783" /><linearGradient
       inkscape:collect="always"
       xlink:href="#linearGradient3318"
       id="linearGradient3352-6"
       gradientUnits="userSpaceOnUse"
       gradientTransform="translate(48.963659,-7.3713146)"
       x1="55.677292"
       y1="102.16783"
       x2="107.25941"
       y2="102.16783" /></defs><g
     inkscape:groupmode="layer"
     id="layer2"
     inkscape:label="Layer 3"><circle
       style="opacity:0.95;fill:url(#linearGradient3352-6);fill-opacity:1;stroke:#000000;stroke-width:1;stroke-dasharray:none;stroke-dashoffset:68.46;stroke-opacity:0;paint-order:markers fill stroke"
       id="path1104-8-3-5-2-2"
       cx="130.43202"
       cy="94.796501"
       r="25.291061"
       inkscape:label="touch-03" /><circle
       style="opacity:0.95;fill:url(#linearGradient3352);fill-opacity:1;stroke:#000000;stroke-width:1;stroke-dasharray:none;stroke-dashoffset:68.46;stroke-opacity:0;paint-order:markers fill stroke"
       id="path1104-8-3-5-2"
       cx="106.07143"
       cy="82.035675"
       r="25.291061"
       inkscape:label="touch-02" /><circle
       style="opacity:0.95;fill:url(#linearGradient3320);fill-opacity:1;stroke:#000000;stroke-width:1;stroke-dasharray:none;stroke-dashoffset:68.46;stroke-opacity:0;paint-order:markers fill stroke"
       id="path1104-8-3-5"
       cx="-81.850594"
       cy="93.803886"
       r="25.291061"
       transform="scale(-1,1)"
       inkscape:label="touch-01" /></g><g
     inkscape:groupmode="layer"
     id="layer4"
     inkscape:label="Layer 2"
     style="fill:#ffffff;fill-opacity:1"><path
       style="fill:#000000;fill-opacity:1;stroke-width:0.68791"
       d="M 113.44612,220.44543 C 96.396532,217.92682 89.938883,214.00155 68.545449,193.15268 61.091872,185.88884 51.025482,176.08313 46.175694,171.36223 36.18732,161.63929 34.530037,158.95816 34.464133,152.4154 34.317586,137.8663 51.356931,130.52509 61.971676,140.56408 l 4.070102,4.68217 0.135142,-22.72136 C 66.304277,101.11253 66.19419,99.632694 67.821356,96.272076 71.919114,87.808825 79.68,84.899551 87.510697,87.628925 l 2.956804,1.030586 1.0755,-2.687934 c 5.193379,-12.979532 24.854659,-12.979532 30.048039,0 l 1.07549,2.687934 2.95681,-1.03137 c 12.80785,-4.467532 21.83167,4.223646 21.85924,21.053469 l 0.0151,9.22143 1.41476,-1.28034 c 5.83991,-5.28504 21.47863,0.41774 23.2822,11.73566 0.9395,5.89564 0.91359,47.19955 -1.48693,54.33897 -8.07204,24.00713 -34.10529,41.16882 -57.26159,37.7481 z"
       id="path442"
       inkscape:label="hand_out" /></g><g
     inkscape:label="Layer 1"
     inkscape:groupmode="layer"
     id="layer1"
     style="fill:#ffffff;fill-opacity:1"><path
       style="fill:#ffffff;fill-opacity:1;stroke-width:0.68791"
       d="m 132.36366,209.88381 c 14.18665,-4.56064 25.63991,-16.12673 30.32727,-30.62603 2.2163,-6.8556 2.87438,-47.28005 0.8343,-51.24932 -3.80826,-7.40953 -15.33964,-5.2373 -15.33964,2.88962 0,5.46882 -4.18729,8.05711 -7.56701,4.67739 -1.2964,-1.2964 -1.37582,-2.29303 -1.37582,-17.26577 0,-13.08294 -0.19275,-16.29615 -1.09113,-18.18934 -3.5241,-10.130379 -12.61928,-7.090811 -14.32538,-2.102379 -1.70611,4.988429 -1.08114,19.245639 -1.08114,19.245639 0.002,14.6432 0.58052,18.97382 -4.27434,19.50448 -4.85486,0.53066 -3.78389,-16.47498 -3.99278,-24.41561 -0.20889,-7.94063 0.73566,-20.126182 -1.34609,-23.966733 -3.41959,-4.700589 -11.41703,-4.792286 -13.794951,1.462105 -0.397543,1.045631 -0.6809,10.912528 -0.6809,23.710128 0,24.06762 -0.0023,24.08121 -4.126671,24.08121 -4.447788,0 -4.226456,-4.00561 -4.140454,-20.67716 0.086,-16.67155 -0.516906,-16.40587 -2.792355,-19.168723 -2.275449,-2.762855 -9.521993,-2.739555 -11.926254,2.327043 -0.938419,1.97758 -1.091129,6.06365 -1.091129,29.19591 0,34.57716 -0.219395,34.99074 -12.306771,23.19917 -3.635919,-3.54695 -7.286922,-6.79733 -8.113338,-7.22306 -6.51432,-3.35593 -13.676229,4.18246 -10.256443,10.7956 1.170339,2.26318 42.477235,42.71366 47.446562,46.46285 11.606344,8.75659 27.658554,11.62657 41.014464,7.33298 z"
       id="path307"
       inkscape:label="hand_in" /></g></svg>
