<?xml version="1.0" encoding="UTF-8" standalone="no"?>
<!-- Created with Inkscape (http://www.inkscape.org/) -->

<svg
   width="210mm"
   height="297mm"
   viewBox="0 0 210 297"
   version="1.1"
   id="svg5"
   xml:space="preserve"
   inkscape:version="1.2.1 (9c6d41e410, 2022-07-14)"
   sodipodi:docname="hand.svg"
   inkscape:export-filename="hand.png"
   inkscape:export-xdpi="155.625"
   inkscape:export-ydpi="155.625"
   xmlns:inkscape="http://www.inkscape.org/namespaces/inkscape"
   xmlns:sodipodi="http://sodipodi.sourceforge.net/DTD/sodipodi-0.dtd"
   xmlns="http://www.w3.org/2000/svg"
   xmlns:svg="http://www.w3.org/2000/svg"><sodipodi:namedview
     id="namedview7"
     pagecolor="#ffffff"
     bordercolor="#666666"
     borderopacity="1.0"
     inkscape:showpageshadow="2"
     inkscape:pageopacity="0.0"
     inkscape:pagecheckerboard="0"
     inkscape:deskcolor="#d1d1d1"
     inkscape:document-units="mm"
     showgrid="false"
     inkscape:zoom="0.4894542"
     inkscape:cx="190.00757"
     inkscape:cy="736.5347"
     inkscape:window-width="1920"
     inkscape:window-height="964"
     inkscape:window-x="-8"
     inkscape:window-y="-8"
     inkscape:window-maximized="1"
     inkscape:current-layer="layer1" /><defs
     id="defs2" /><g
     inkscape:label="Layer 1"
     inkscape:groupmode="layer"
     id="layer1"><path
       style="fill:none;stroke:#010101;stroke-width:0.413681"
       d="m 95.245184,143.54841 c -0.90555,-3.12866 -1.40486,-7.46486 -3.72313,-9.92833 -1.16865,-1.24146 -2.725744,-1.3635 -4.136809,-2.20616 -2.283104,-1.36391 -4.868609,-3.30118 -6.618892,-5.2401 -0.338929,-0.37521 -0.698252,-0.9134 -0.965241,-1.24104 -1.026549,-1.25966 -2.178319,-2.64714 -3.171567,-4.13681 -2.625631,-3.93824 -4.9645,-8.06719 -7.584133,-11.99674 -2.628486,-3.94279 -6.249268,-7.02264 -9.100977,-10.755701 -2.845462,-3.72478 -4.845484,-8.38448 -7.722054,-11.99674 -0.372148,-0.46746 -0.670742,-0.81702 -0.965242,-1.24104 -0.719184,-1.03545 -1.578192,-2.36336 -0.620521,-3.72313 1.943803,-2.76008 5.429271,-2.35095 8.204655,-1.31013 3.441617,1.29069 6.806207,3.64287 8.963097,6.68798 1.571532,2.21857 2.608216,4.3271 4.688368,6.20521 1.548862,1.39824 4.092957,2.80476 6.205211,2.48208 1.44416,-0.22049 1.852504,-0.73511 2.482085,-2.0684 0.660524,-1.39865 1.182465,-3.44927 1.792479,-4.96417 1.548407,-3.84351 2.340192,-7.7834 1.930648,-11.99674 -0.282131,-2.9028 -1.71057,-5.8358 -2.344329,-8.6873 -1.922209,-8.65048 -3.455269,-17.41095 -5.377726,-26.06189 -0.62987,-2.83445 -1.22433,-6.75987 0,-9.51465 0.699865,-1.57468 2.150064,-3.12689 3.998928,-2.89577 0.95854,0.1198 1.68699,0.59293 2.344329,1.31 0.309847,0.33823 0.523306,0.71613 0.827361,1.17209 1.750697,2.62654 2.414241,5.65882 3.171277,8.68729 1.933958,7.73501 5.523883,15.32646 8.411783,22.75244 1.01269,2.60413 1.39535,6.31029 3.86088,7.85994 1.940576,-2.73112 1.135556,-7.58442 0.827366,-10.7557 -0.33219,-3.41494 0.33218,-6.92696 0,-10.34202 -0.51793,-5.32883 -0.827366,-10.75653 -0.827366,-16.13355 0,-3.56138 -0.39134,-9.7373 2.482086,-12.34146 0.80006,-0.72502 2.63101,-1.6685 3.72313,-1.51685 0.76158,0.10582 1.36059,0.49088 1.93064,1.10317 0.30116,0.32378 0.53737,0.69473 0.75828,1.17208 0.78144,1.68827 1.3697,3.91673 1.44788,5.79153 0.37604,9.02205 1.60922,17.91258 2.48209,26.88925 0.46373,4.76891 -0.7409,10.4624 1.24104,14.89251 2.90197,-0.91217 2.72698,-6.92212 3.4472,-9.51466 2.2649,-8.15315 4.45203,-16.51364 6.06746,-24.82085 0.53323,-2.74253 1.00938,-7.86192 4.13681,-8.96309 5.17762,-1.82318 6.3049,6.02712 5.65377,9.37677 -1.04165,5.35709 -1.40445,10.72004 -1.93065,16.13355 -0.50758,5.21941 -1.96291,10.56789 -2.96485,15.71987 -0.46746,2.40514 -1.20629,4.98527 -1.17196,7.44626 0.0128,0.9374 -0.0203,2.12632 0.89645,2.68892 2.51477,1.54427 5.94625,-4.04455 7.10124,-5.58469 4.40653,-5.87509 7.39289,-12.8874 11.92808,-18.61563 1.31385,-1.65965 3.58826,-4.86017 6.13612,-3.99893 2.46761,0.8341 2.3435,3.58818 1.99932,5.65365 -0.83108,4.98775 -3.77153,10.18854 -6.27388,14.47883 -1.92941,3.30779 -3.78849,6.65033 -5.79153,9.92834 -1.92651,3.15224 -4.23733,6.2656 -5.10234,9.92833 -0.8526,3.61102 -0.60811,7.49549 -0.96512,11.169381 -0.41533,4.27209 -1.37011,8.65172 -2.413,12.82411 -0.76696,3.06786 -1.6783,6.23086 -3.03393,9.10098 -0.91258,1.93313 -2.39852,3.76408 -3.10261,5.79153 -1.44581,4.16369 -0.55143,9.6913 -0.55143,14.06514 m -42.195438,-56.674261 2.895766,1.0342 2.290966,0.63127 7.91591,2.25473 20.405496,5.4567 12.41042,3.86088 M 88.30693,86.578679 c 5.115674,3.33685 11.679854,9.08908 14.31541,14.360621 3.37274,6.74547 1.31013,15.19242 1.31013,22.33876"
       id="path425"
       sodipodi:nodetypes="ccccccsccscscccccscssscccscccscccccscccccccccccscccccccccccccccccc" /></g></svg>
