<?xml version="1.0" encoding="UTF-8" standalone="no"?><svg xmlns:svg="http://www.w3.org/2000/svg" xmlns="http://www.w3.org/2000/svg" version="1.1" style="overflow:visible" viewBox="-250 -250 500 500" height="2000px" width="2000px"><rect fill-opacity="0" fill="rgb(0,0,0)" height="500" width="500" y="-250" x="-250" /><svg version="1.1" y="-250" x="-250" viewBox="-250 -250 500 500" height="500px" width="500px" style="overflow:visible"><g transform="rotate(0,0,0)" stroke-linejoin="round" fill="#fff"><path stroke-linecap="butt" stroke-linejoin="round" stroke="none" fill="rgb(255,255,255)" d="m-1.5-156.999c8.6911-0.1247 17.306 6.7648 17.411 15.447c0 0-2.212 78.501 2.7715 103.27c5.4227-24.357 14.781-96.14 14.781-96.14c1.0687-8.3365 9.2181-14.766 18.961-12.975c9.6172 1.768 14.133 10.661 13.75 18.531c-1.4406 29.557-11.506 79.167-8.2034 97.308c7.5296-16.204 14.85-53.111 18.275-76.891c1.1983-8.3188 8.8594-14.051 17.177-12.852c8.3176 1.1984 14.049 10.379 12.548 20.521l-6.3797 43.072c-6.9005 47.906-10.265 115.06-29.878 142.93c-9.015 12.813-10.825 40.576-10.953 56.329c-41.249 15.018-76.497 7.2109-111.89-0.0547c3.4223-45.263-31.513-69.441-41.091-135.29l-11.562-50.467c-2.0723-9.0449 3.5421-17.976 12.59-20.029l0.0819-0.0205c2.262-0.51307 4.519-0.5446 6.6631-0.16411c6.4323 1.1414 11.856 6.0019 13.41 12.786l10.995 47.992c2.8134 8.5041 7.0357 3.061 6.7622-2.4942l-11.46-118.04c-1.1702-10.708 4.069-18.173 14.008-19.873c9.9386-1.7 15.701 7.1362 16.767 14.11c5.8342 38.181 8.5607 71.492 15.727 90.154c5.486-22.497 1.8118-101.39 1.8118-101.39c-0.0813-8.6827 8.2382-15.641 16.929-15.765z" /><path stroke-linecap="butt" stroke-linejoin="round" stroke="none" fill="rgb(255,235,0)" d="m-53.13 141.49l111.89 0.0547c2.8786 1.2227 4.8872 4.0705 4.8872 7.4057c0 4.457-3.5865 8.045-8.0429 8.045h-105.72c-4.4564 0-8.044601-3.588-8.044601-8.045c0-3.39 2.0794-6.2722 5.0341-7.4604z" /><path stroke-linecap="butt" stroke-linejoin="round" stroke="none" fill="rgb(255,248,165)" d="m7.97-139.66c0.13894 33.713-1.4808 67.227 2.2284 103.09c1.85 9.1714 14.896 9.3058 16.934 0.17437c5.7483-25.819 14.775-94.115 14.775-94.115c0.75534-5.4681 3.6739-9.3337 8.9544-8.363c5.019 0.92269 6.8752 5.3397 6.6683 9.5853c-0.68395 14.033-3.5252 33.795-5.8247 52.288c-2.2996 18.493-4.4282 35.027-2.2489 46.997c1.5164 8.3106 12.802 9.7596 16.364 2.101c8.7447-18.819 15.5-55.056 18.994-79.308c0.53453-3.7109 4.5498-5.5112 8.2736-4.9747c2.7028 0.38943 5.2441 3.908 4.3219 10.136l-6.3797 43.07l-0.005 0.0359c-3.5034 24.322-6.0665 53.018-10.155 78.857c-3.9453 24.933-9.7518 47.247-17.392 59.069c-25.789 4.4742-94.237 7.9256-124.46-1.1437c-9.5437-20.019-20.072-41.293-24.667-72.882c-0.0334-0.23128-0.0762-0.46111-0.12807-0.68894l-11.562-50.467c-1.0331-4.5089 1.5431-8.6142 6.0655-9.64c0.029-0.007 0.0581-0.0136 0.0871-0.0205c1.1245-0.25431 2.2007-0.26718 3.2342-0.0838c3.0974 0.54963 5.7092 2.809 6.4838 6.1902c5.1005 11.663 8.9488 38.938 16.479 56.934c3.1985 2.433 9.5944 2.3153 12.56 0.17267c2.9652-2.1426 4.0006-4.4996 4.7899-6.7783c0.78931-2.2786 1.1383-4.6421 1.0126-7.1954c-0.007-0.13756-0.0172-0.27492-0.0308-0.41199l-11.68-119.97c-0.31952-4.9552 2.0747-8.3466 7.0609-8.5661c4.9862-0.21952 6.1595 3.3769 6.752 6.8791c5.7813 37.835 8.062799 70.754 16.204 91.952c3.0442 7.9267 14.479 7.1954 16.491-1.0548c1.9659-36.423 2.1156-63.733 2.2404-101.21c0.34037-6.6868 4.0636-9.8184 10.13-9.3386c6.0669 0.47981 7.3832 5.671 7.4292 8.6701z" /><path stroke-linecap="butt" stroke-linejoin="round" stroke="none" fill="rgb(221,221,221)" d="m-40.05 89.21a4.0004 4.0004 0 0 0-3.5137 5.9141c4.3419 8.247199 6.3194 23.689 6.084 36.129a4.0004 4.0004 0 1 0 7.998 0.15235c0.25169-13.3-1.336-29.242-7.0039-40.008a4.0004 4.0004 0 0 0-3.5645-2.1875z" /><path stroke-linecap="butt" stroke-linejoin="round" stroke="none" fill="rgb(221,221,221)" d="m43.66 89.22a4.0004 4.0004 0 0 0-3.3984 2.2578c-5.3872 10.777-6.6814 26.658-6.9629 39.771a4.0004 4.0004 0 1 0 7.998 0.17187c0.27108-12.626 2.0042-28.129 6.1211-36.365a4.0004 4.0004 0 0 0-3.7578-5.8359z" /><path stroke-linecap="butt" stroke-linejoin="round" stroke="none" fill="rgb(221,221,221)" d="m-12.88 89.21a4.0004 4.0004 0 0 0-3.9512 5.082c2.7377 10.296 3.3769 24.273 3.1367 36.965a4.0007 4.0007 0 0 0 8 0.15235c0.24691-13.048-0.29777-27.481-3.4062-39.172a4.0004 4.0004 0 0 0-3.7793-3.0273z" /><path stroke-linecap="butt" stroke-linejoin="round" stroke="none" fill="rgb(221,221,221)" d="m16 88.92a4.0004 4.0004 0 0 0-3.8086 3.7773c-0.94617 13.713-1.548 25.617-1.793 38.564a4.0004 4.0004 0 1 0 7.998 0.15235c0.24208-12.793 0.83506-24.538 1.7754-38.166a4.0004 4.0004 0 0 0-4.18-4.32z" /><path stroke-linecap="butt" stroke-linejoin="round" stroke-width="1" stroke-opacity="1" stroke="rgb(68,68,68)" fill="none" d="m15.91-141.55s-2.2114 78.502 2.772 103.27c5.4227-24.357 14.782-96.14 14.782-96.14c1.0687-8.3365 9.2176-14.767 18.961-12.976c9.6172 1.768 14.134 10.661 13.751 18.531c-1.4406 29.557-11.507 79.168-8.2043 97.309c7.5296-16.204 14.85-53.111 18.276-76.891c1.1983-8.3188 8.8593-14.051 17.177-12.853c8.3176 1.1984 14.049 10.38 12.547 20.522l-6.3803 43.071c-6.9005 47.906-10.265 115.06-29.878 142.93c-9.0149 12.813-10.826 40.576-10.954 56.329c2.8786 1.2227 4.8884 4.0697 4.8884 7.4049c0 4.457-3.5877 8.045299-8.0442 8.045299h-105.72c-4.4564 0-8.0441-3.5883-8.0441-8.0453c0-3.39 2.078199-6.2719 5.0328-7.46c3.4223-45.263-31.513-69.441-41.09-135.29l-11.56-50.47c-2.0723-9.0449 3.5424-17.977 12.591-20.03l0.0817-0.019c2.2621-0.51307 4.5188-0.5458 6.6629-0.16532c6.4323 1.1414 11.857 6.0026 13.411 12.786l10.995 47.991c2.8134 8.5041 7.0356 3.0612 6.7621-2.4939l-11.46-118.03c-1.1702-10.708 4.0694-18.172 14.008-19.872s15.702 7.1361 16.767 14.11c5.8341 38.181 8.5609 71.491 15.727 90.153c5.486-22.497 1.8105-101.39 1.8105-101.39c-0.0813-8.6827 8.238799-15.641 16.93-15.766c8.6911-0.1247 17.306 6.7637 17.411 15.446z" /></g></svg></svg>