<?xml version="1.0" encoding="UTF-8" standalone="no"?>
<!-- Created with Inkscape (http://www.inkscape.org/) -->

<svg
   width="297mm"
   height="210mm"
   viewBox="0 0 297 210"
   version="1.1"
   id="svg5"
   xml:space="preserve"
   inkscape:version="1.2.1 (9c6d41e410, 2022-07-14)"
   sodipodi:docname="YubitenReader_hold.svg"
   inkscape:export-filename="YubitenReader_hold.png"
   inkscape:export-xdpi="155.625"
   inkscape:export-ydpi="155.625"
   xmlns:inkscape="http://www.inkscape.org/namespaces/inkscape"
   xmlns:sodipodi="http://sodipodi.sourceforge.net/DTD/sodipodi-0.dtd"
   xmlns="http://www.w3.org/2000/svg"
   xmlns:svg="http://www.w3.org/2000/svg"><sodipodi:namedview
     id="namedview7"
     pagecolor="#ffffff"
     bordercolor="#666666"
     borderopacity="1.0"
     inkscape:showpageshadow="2"
     inkscape:pageopacity="0.0"
     inkscape:pagecheckerboard="0"
     inkscape:deskcolor="#d1d1d1"
     inkscape:document-units="mm"
     showgrid="false"
     inkscape:zoom="0.4894542"
     inkscape:cx="-117.47779"
     inkscape:cy="513.83766"
     inkscape:window-width="1920"
     inkscape:window-height="964"
     inkscape:window-x="-8"
     inkscape:window-y="-8"
     inkscape:window-maximized="1"
     inkscape:current-layer="layer1" /><defs
     id="defs2" /><g
     inkscape:label="Layer 1"
     inkscape:groupmode="layer"
     id="layer1"><path
       style="fill:#000000;stroke-width:0.412475"
       d="m 200.67032,166.61069 c 0,-0.17665 -1.25289,-0.53696 -2.7842,-0.80069 -6.86612,-1.18252 -10.70491,-2.45988 -16.37322,-5.4482 -5.31217,-2.80057 -9.4673,-5.7459 -13.48767,-9.56063 -2.36002,-2.23929 -2.50595,-3.22836 -0.73729,-4.99702 l 1.26549,-1.26549 -9.6181,0.25976 c -5.28995,0.14286 -15.45325,0.26258 -22.5851,0.26603 l -12.967,0.006 1.07894,1.13431 c 2.27957,2.39655 1.83052,5.23696 -1.26273,7.98718 -2.29043,2.03642 -5.2012,3.41512 -8.63747,4.09116 -4.04221,0.79526 -18.869997,0.31636 -25.672267,-0.82915 -6.6265,-1.1159 -8.98667,-2.05219 -11.5409,-4.57829 -2.033426,-2.01104 -2.009956,-2.00798 -4.918417,-0.64059 -0.608718,0.28619 -3.554765,0.46616 -7.63078,0.46616 -6.499096,0 -6.687156,-0.0249 -8.907872,-1.17863 -2.939785,-1.52733 -4.362655,-2.88068 -5.699431,-5.42096 -0.969348,-1.84206 -1.089794,-2.5448 -1.127487,-6.57838 l -0.0422,-4.51601 -1.20578,-0.31803 c -0.663179,-0.17492 -1.909684,-0.71119 -2.770011,-1.19171 -5.475184,-3.05812 -7.056878,-8.94501 -4.415737,-16.43487 0.672134,-1.90606 1.503733,-3.77681 1.847998,-4.15722 0.344265,-0.38041 0.625936,-0.84129 0.625936,-1.02418 0,-0.18289 1.426066,-2.48844 3.169036,-5.12345 2.779264,-4.20168 3.948821,-5.85427 5.480533,-7.744027 0.271862,-0.33541 -0.0995,-0.67317 -1.243372,-1.13086 -3.247958,-1.29957 -4.872331,-4.42466 -4.908303,-9.44293 -0.07063,-9.85262 5.065146,-15.96504 13.414112,-15.96504 2.319006,0 6.55412,0.79786 7.57097,1.4263 0.205971,0.1273 0.76787,-0.26864 1.248664,-0.87987 0.480794,-0.61123 1.470128,-1.48618 2.198521,-1.94432 1.788965,-1.12522 6.758257,-3.13933 7.74547,-3.13933 1.186,0 0.98411,-0.41464 -1.285588,-2.64037 -1.133873,-1.11191 -2.921877,-3.31571 -3.973342,-4.89734 -2.843009,-4.2765 -2.906399,-7.03845 -0.251864,-10.97401 1.61227,-2.39031 2.736594,-3.24744 5.198661,-3.96318 3.438563,-0.99962 7.772513,-0.23928 11.833663,2.07606 0.56715,0.32334 1.69872,0.59063 2.51459,0.59398 0.89062,0.004 2.86859,0.68411 4.9497,1.70278 1.90646,0.93319 3.837507,1.86098 4.291227,2.06175 1.39128,0.61563 4.56984,2.54898 7.08977,4.31234 1.31843,0.92258 4.11164,2.83534 6.20712,4.25056 l 3.80997,2.57314 3.2021,-0.44875 c 1.76115,-0.24682 6.07911,-0.70722 9.59545,-1.02312 7.43227,-0.66769 16.30084,-1.58243 26.19214,-2.70157 3.85664,-0.43635 8.31136,-0.89703 9.89939,-1.02373 1.58803,-0.1267 4.61913,-0.43735 6.73579,-0.69032 3.22958,-0.38599 3.81518,-0.5668 3.64145,-1.12433 -0.11386,-0.3654 -0.7776,-2.14928 -1.47497,-3.96417 -2.50518,-6.51966 -2.75471,-11.44466 -0.72892,-14.38696 2.12406,-3.08503 3.00461,-3.69812 5.56359,-3.87367 1.93568,-0.13279 2.69987,0.027 4.33816,0.90735 2.66296,1.43088 5.14413,3.55148 7.11263,6.07897 1.40462,1.80349 2.30231,2.41112 6.66837,4.51369 2.77489,1.3363 5.14097,2.42964 5.25795,2.42964 0.11699,0 1.39125,0.55684 2.83171,1.23743 1.44046,0.68058 2.88874,1.23742 3.2184,1.23742 0.32967,0 0.77573,0.1577 0.99125,0.35044 0.21551,0.19275 1.22711,0.67645 2.24798,1.0749 1.02088,0.39844 2.32017,0.91924 2.88733,1.15732 0.56715,0.23808 1.86644,0.75605 2.88732,1.15106 1.02087,0.395 2.59859,1.00765 3.50603,1.36145 0.98635,0.38456 2.98449,0.65054 4.96833,0.66137 7.18596,0.0392 17.62318,4.08891 23.28618,9.03518 0.79402,0.69352 2.18429,1.90456 3.08951,2.6912 0.90522,0.78665 1.49577,1.58035 1.31233,1.76378 -0.18343,0.18343 -0.64564,-0.0478 -1.02713,-0.51375 -1.57999,-1.92996 -7.38176,-6.21924 -11.00549,-8.1364 -4.6692,-2.47027 -10.57883,-3.99696 -15.47181,-3.99696 -2.42761,0 -3.74157,-0.2436 -5.79554,-1.07446 -1.46089,-0.59096 -3.76986,-1.49625 -5.13102,-2.01176 -3.56131,-1.34877 -9.55758,-3.84563 -12.00157,-4.99747 -1.15619,-0.54491 -2.22382,-0.99075 -2.37249,-0.99075 -0.14868,0 -2.19162,-0.91522 -4.53986,-2.03383 -2.84184,-1.35374 -4.63674,-2.49164 -5.36767,-3.40292 -3.68959,-4.59992 -8.63035,-8.17491 -11.29801,-8.17491 -1.86801,0 -4.53778,2.00769 -5.95502,4.47824 -1.15246,2.009 -1.24578,2.43969 -1.02772,4.74346 0.26769,2.82809 1.43594,6.99368 3.05823,10.90456 l 1.07689,2.59608 2.92086,-0.32747 c 1.60648,-0.18012 6.63314,-0.31876 11.17036,-0.30811 7.2811,0.0171 8.55587,0.12214 10.85956,0.89481 l 2.61007,0.87543 2.33962,-0.83987 c 3.46596,-1.2442 8.4794,-1.22927 12.41944,0.037 3.34711,1.0757 8.36224,3.7965 7.51716,4.07819 -0.28986,0.0966 -0.84109,-0.079 -1.22497,-0.39031 -2.42922,-1.96986 -8.93136,-4.06269 -12.58221,-4.0498 -1.76575,0.006 -6.43134,0.9504 -7.91454,1.60165 -0.45372,0.19923 -2.68108,0.66979 -4.94969,1.04569 -8.84787,1.46609 -16.0637,3.93964 -22.72654,7.79054 -2.29268,1.3251 -8.67668,7.16854 -8.27286,7.57236 0.0789,0.0789 0.80853,-0.13455 1.6215,-0.47423 l 1.47813,-0.6176 0.24489,2.3652 c 0.34354,3.31806 1.03726,6.65041 1.73745,8.34609 0.56927,1.37862 0.55022,1.48322 -0.42298,2.32182 l -1.01911,0.87816 2.30238,0.46238 c 3.70029,0.74312 6.25917,0.55306 13.60251,-1.01033 10.81098,-2.30165 19.22372,-2.33188 30.37973,-0.10916 3.54217,0.70574 4.79802,1.14231 5.76094,2.00268 0.7576,0.67691 1.13835,1.34254 0.98964,1.73007 -0.20684,0.53901 -2.10586,0.66466 -13.16493,0.87103 -7.28238,0.13589 -13.91345,0.45165 -15.19184,0.7234 -1.24773,0.26523 -3.4751,0.4506 -4.94969,0.41195 -3.0191,-0.0791 -10.74446,0.91822 -12.599,1.62657 -0.6704,0.25606 -2.23354,0.654 -3.47365,0.88431 -1.2401,0.23031 -2.94972,0.91235 -3.79915,1.51564 -1.29034,0.91645 -1.58258,1.40227 -1.77636,2.95304 -0.12756,1.020877 -0.51105,3.399617 -0.8522,5.286097 l -0.62026,3.42997 1.0635,1.9322 c 1.44689,2.62877 2.14702,3.41423 4.54688,5.10105 2.79501,1.96457 7.16673,3.24413 12.27032,3.5914 5.03551,0.34264 19.75312,-0.14023 24.52926,-0.80478 3.80865,-0.52993 16.85556,-0.14315 17.26027,0.5117 0.13106,0.21205 0.13141,0.8114 8.3e-4,1.33188 -0.22072,0.87941 -0.52066,0.96624 -4.24101,1.22775 -5.71969,0.40206 -16.72564,1.87771 -17.24994,2.31283 -0.25519,0.2118 -1.13949,0.21821 -2.08015,0.0151 -0.89993,-0.19433 -4.14203,-0.55054 -7.20465,-0.79156 -5.55143,-0.4369 -9.7533,-0.18181 -10.80076,0.65569 -0.39411,0.31511 -1.33124,0.10712 -3.42961,-0.76117 -3.18407,-1.31756 -4.52572,-1.67203 -9.82841,-2.59674 -3.46359,-0.604 -3.67288,-0.59518 -5.93197,0.25005 -1.28794,0.48188 -3.08806,1.57234 -4.00027,2.42324 -1.5408,1.43724 -1.65857,1.7053 -1.65857,3.7751 0,2.59896 1.30666,5.21905 4.04459,8.11011 1.97132,2.08157 3.44835,3.0793 8.3689,5.65315 10.53806,5.51226 22.80657,8.31934 34.55427,7.90611 3.59567,-0.12647 7.42807,-0.50854 9.09932,-0.90713 6.53311,-1.55817 10.82812,-2.84668 12.5772,-3.77319 2.45001,-1.29782 3.45992,-1.27498 1.96091,0.0443 -0.62476,0.54987 -1.83125,1.12168 -2.68109,1.27069 -0.84983,0.14901 -1.97885,0.54331 -2.50892,0.87623 -1.11409,0.69973 -4.45944,1.91301 -8.34896,3.02796 -1.49222,0.42775 -3.22123,0.97091 -3.84224,1.20702 -1.5351,0.58365 -4.05325,0.53494 -10.14985,-0.1963 -2.83576,-0.34013 -6.89415,-0.80338 -9.01865,-1.02944 -5.75375,-0.61224 -11.90819,-1.93962 -14.69864,-3.17017 -1.9927,-0.87877 -3.30338,-1.12849 -6.72772,-1.28184 l -4.25289,-0.19045 1.05032,1.54772 c 1.64733,2.42748 1.94645,4.0586 1.17967,6.4328 l -0.65742,2.03558 -1.4831,-0.87368 -1.48309,-0.87369 0.81034,0.89768 c 0.78129,0.86549 5.50729,4.16169 7.64035,5.32885 3.31372,1.81318 7.06772,3.53795 9.64455,4.43117 4.17014,1.44551 11.34671,2.62759 15.93391,2.62453 7.77412,-0.005 20.44821,-2.82229 28.9248,-6.42919 1.2761,-0.543 2.52403,-0.98727 2.77317,-0.98727 0.77888,0 12.8809,-5.76165 16.45844,-7.8357 1.19102,-0.69049 2.16549,-1.06983 2.16549,-0.84299 0,0.22684 -0.77338,0.83384 -1.71863,1.34889 -3.13966,1.71074 -7.27482,3.81002 -9.702,4.92537 -5.44922,2.50401 -6.18378,2.81689 -6.61331,2.81689 -0.24723,0 -1.1631,0.35307 -2.03527,0.7846 -4.55898,2.2557 -20.88762,6.62826 -24.78745,6.6377 -0.51044,0.001 -0.92807,0.18786 -0.92807,0.41472 0,0.24998 -1.78739,0.41247 -4.53722,0.41247 -2.49547,0 -4.53722,-0.14453 -4.53722,-0.32118 z m -84.34454,-9.43542 c 7.44361,-2.28434 11.05639,-7.35469 7.57903,-10.63676 -2.24744,-2.12123 -5.14295,-3.21492 -8.39497,-3.17096 -3.08425,0.0417 -8.08533,1.35987 -8.90461,2.34705 -0.27093,0.32645 -0.88751,0.59369 -1.37016,0.59387 -1.00386,3.6e-4 -6.663067,-1.00602 -10.456797,-1.85955 -2.25429,-0.50718 -2.8324,-0.49937 -4.74346,0.0641 -3.99107,1.17668 -13.519349,5.79177 -13.519349,6.54821 0,0.59382 3.767229,3.50497 5.568409,4.30303 0.68058,0.30154 4.67127,1.06588 8.8682,1.69853 6.701,1.0101 8.56057,1.13342 15.261567,1.01214 5.94873,-0.10767 8.17774,-0.30597 10.11214,-0.89961 z m -2.91353,-3.29657 c -1.89859,-2.04861 -1.08457,-4.41963 2.42777,-7.07148 3.49318,-2.63737 4.72436,-2.64731 7.31265,-0.059 1.4478,1.44779 0.82068,4.42323 -1.34988,6.4047 -1.57128,1.4344 -2.63798,1.81721 -5.06363,1.81721 -1.97403,0 -2.46456,-0.16092 -3.32691,-1.09141 z m 7.7042,-1.31973 c 1.86071,-1.71093 2.17364,-2.21529 2.17364,-3.50336 0,-1.52561 -0.31925,-1.9219 -2.67251,-3.31742 -1.01085,-0.59944 -1.16501,-0.5608 -3.09356,0.77546 -3.62432,2.51121 -3.9317,2.8509 -4.16698,4.60512 -0.30935,2.30634 0.8861,3.43887 3.62994,3.43887 1.76464,0 2.16831,-0.19537 4.12947,-1.99867 z m 53.22615,-1.11474 c 0.40384,-1.51002 -0.29116,-4.23043 -1.38161,-5.40792 -0.79028,-0.85336 -0.90101,-0.86454 -2.65183,-0.26798 -2.16975,0.73931 -2.89436,1.77417 -2.13064,3.04293 0.64975,1.07942 4.86124,4.16348 5.42768,3.97467 0.228,-0.076 0.55937,-0.67976 0.7364,-1.3417 z M 72.803193,151.29346 c 1.247735,-0.48908 3.753518,-1.60902 5.568407,-2.48875 5.398183,-2.61664 7.645073,-3.57828 11.414603,-4.8853 5.63056,-1.95229 9.296,-4.88446 12.188677,-9.75031 1.10024,-1.85075 1.53664,-3.11299 1.67316,-4.83942 0.18204,-2.30226 0.15877,-2.36153 -1.6289,-4.14919 -1.24122,-1.24122 -2.448967,-1.99148 -3.826907,-2.37728 -1.95881,-0.54843 -2.08133,-0.5289 -4.52363,0.72087 -4.14284,2.11997 -6.85126,3.22124 -10.75978,4.37504 -2.04175,0.60273 -4.547535,1.35905 -5.56841,1.6807 -2.127806,0.67044 -10.251749,2.54469 -13.611662,3.14031 -4.450637,0.78898 -11.363371,2.10373 -12.571243,2.39096 -1.060291,0.25213 -1.27436,0.54406 -1.565909,2.13541 -1.036165,5.65565 1.863479,11.60869 6.65482,13.6625 3.147915,1.34935 4.589365,1.56308 9.544705,1.41524 3.632601,-0.10839 5.274738,-0.34978 7.012069,-1.03078 z m 18.7003,-13.44697 c -2.18098,-1.30729 -3.43874,-3.77138 -3.43874,-6.73684 0,-1.63429 0.16655,-2.21524 0.69301,-2.41726 0.38115,-0.14626 1.62981,-0.88289 2.7748,-1.63695 1.14498,-0.75406 2.17882,-1.36937 2.29743,-1.36735 0.59693,0.0101 5.28575,4.40856 6.0913,5.71403 1.380927,2.23794 1.213317,3.49535 -0.71545,5.36716 -2.44451,2.37231 -4.95579,2.72353 -7.70235,1.07721 z m 5.67843,-0.4282 c 2.40315,-1.21776 3.409387,-2.92433 2.78329,-4.72039 -0.4474,-1.28339 -3.80597,-4.79547 -5.3503,-5.59485 -0.98601,-0.51037 -1.2491,-0.4525 -3.00477,0.66091 -1.05828,0.67114 -2.08345,1.22025 -2.27816,1.22025 -0.19471,0 -0.46669,0.2936 -0.60439,0.65245 -0.47628,1.24118 -0.23835,2.86206 0.72164,4.91596 0.75034,1.60535 1.36642,2.26677 2.78017,2.98472 2.28491,1.16035 2.43485,1.15675 4.95252,-0.11905 z m 73.790227,14.93467 c 0,-0.0783 -0.41763,-0.4959 -0.92807,-0.92807 l -0.92807,-0.78576 0.78576,0.92807 c 0.73842,0.87215 1.07038,1.11584 1.07038,0.78576 z m -3.05814,-3.01676 c -0.81049,-1.19274 -0.93856,-1.69004 -0.61083,-2.37173 0.39781,-0.82747 0.38924,-0.83087 -0.2108,-0.0838 -0.66505,0.82807 -0.41263,1.73439 0.90314,3.24282 1.04645,1.19967 1.00651,0.81382 -0.0815,-0.78734 z m 49.79767,-0.19337 c 3.4361,-0.8067 6.83243,-1.96133 5.85098,-1.98912 -0.22686,-0.006 -1.34054,0.28119 -2.47485,0.63914 -1.20684,0.38084 -4.62897,0.7798 -8.24949,0.96174 -3.40291,0.171 -5.35186,0.36211 -4.33098,0.42469 1.02087,0.0626 2.41297,0.25549 3.09356,0.42866 1.91185,0.48649 2.12735,0.47008 6.11078,-0.46511 z m -23.34019,-1.84646 c -0.13706,-0.13707 -0.49282,-0.15172 -0.79058,-0.0326 -0.32904,0.13167 -0.2313,0.22941 0.24921,0.2492 0.43481,0.0179 0.67843,-0.0796 0.54137,-0.21664 z m -2.67249,-0.43645 c -0.28358,-0.11442 -0.74761,-0.11442 -1.03119,0 -0.28357,0.11443 -0.0516,0.20805 0.51559,0.20805 0.56716,0 0.79917,-0.0936 0.5156,-0.20805 z m -1.75302,-0.31191 c 0,-0.32761 -5.36574,-1.95732 -5.87888,-1.78555 -0.64171,0.21479 3.68508,1.90736 4.95081,1.93667 0.51044,0.0118 0.92807,-0.0562 0.92807,-0.15112 z m -26.39837,-4.33337 14.64284,-0.27771 -1.85613,-0.91997 c -3.16618,-1.5693 -7.38347,-4.35762 -8.06157,-5.33003 -0.52972,-0.75963 -1.03596,-0.92845 -2.78928,-0.93018 -4.01553,-0.004 -6.87789,-2.65267 -6.88284,-6.36908 -0.005,-3.47732 2.91484,-6.41552 6.37464,-6.41552 0.54917,0 1.11299,-0.18526 1.25293,-0.41168 0.62479,-1.01093 4.68014,-2.47556 6.84612,-2.47253 2.13202,0.003 11.64292,2.16602 12.52851,2.84934 1.12234,0.86598 2.9266,1.13086 4.13691,0.60733 1.59659,-0.69061 8.20402,-0.6932 13.71478,-0.005 l 4.22787,0.52771 9e-5,-1.88795 9e-5,-1.88794 -3.81548,0.2706 c -6.72523,0.47698 -15.21858,0.35877 -18.7192,-0.26053 -3.77336,-0.66755 -8.77304,-2.51806 -9.09912,-3.36782 -0.11835,-0.30842 -0.44268,-0.56077 -0.72073,-0.56077 -0.59787,0 -2.58723,-2.41913 -3.90075,-4.74345 -0.51281,-0.90745 -1.51413,-2.02113 -2.22515,-2.47485 -5.24001,-3.34378 -3.56851,-10.507977 2.69868,-11.566807 0.95392,-0.16117 2.10968,-0.53506 2.56835,-0.83087 2.03624,-1.31323 15.61727,-3.96665 19.80779,-3.86999 1.98978,0.0459 12.16478,-0.776 12.44721,-1.00544 0.0401,-0.0326 -0.0344,-1.24361 -0.16567,-2.69112 l -0.23865,-2.63184 -3.75283,0.27102 c -3.48649,0.25179 -9.28866,1.2716 -16.74579,2.9433 -2.33207,0.52279 -3.9058,0.61937 -6.39335,0.39235 -1.81489,-0.16563 -4.72716,-0.26434 -6.47172,-0.21935 -2.65269,0.0684 -3.44215,-0.0737 -4.82268,-0.86825 -1.78911,-1.02968 -3.34845,-3.56999 -3.34845,-5.45492 0,-1.45059 1.3667,-4.08985 2.63411,-5.0868 0.55398,-0.43575 2.11854,-2.19075 3.47681,-3.89999 2.40606,-3.02777 7.32297,-6.97594 10.80054,-8.67261 5.00098,-2.43992 13.34731,-5.26576 15.57092,-5.27189 1.46075,-0.004 1.08427,-0.74535 -0.61872,-1.21829 -2.01043,-0.55833 -10.50419,-0.55532 -14.96302,0.005 -1.92237,0.2417 -7.11468,0.78949 -11.53847,1.21731 -10.5843,1.0236 -18.53034,1.88749 -26.60461,2.89244 -3.62978,0.45178 -8.64134,0.99665 -11.13682,1.21083 -2.49547,0.21418 -6.57897,0.66929 -9.07444,1.01136 -2.49547,0.34206 -6.76458,0.81997 -9.48691,1.06202 -2.72234,0.24205 -6.06338,0.61612 -7.42455,0.83127 -1.36116,0.21516 -5.40067,0.67116 -8.976677,1.01335 -11.69203,1.11881 -19.794987,3.86647 -21.589063,7.32073 -0.662212,1.275 -0.486271,1.44163 2.51747,2.38425 0.907443,0.28477 3.237633,1.33007 5.178203,2.32289 1.94056,0.99283 4.02448,1.80514 4.63092,1.80514 1.85233,0 6.32374,1.91681 8.51863,3.65177 1.14289,0.9034 2.73027,1.85781 3.527517,2.12093 0.79725,0.26312 1.44955,0.64239 1.44955,0.84281 0,0.20043 0.39771,0.73495 0.8838,1.18781 0.60002,0.55901 0.94812,1.49273 1.0841,2.90798 0.1697,1.76606 0.0361,2.32155 -0.87443,3.63543 -2.37246,3.42347 -5.217767,4.044 -17.949817,3.91469 l -9.225561,-0.0937 0.29609,3.599727 c 0.16285,1.97986 0.376182,3.68319 0.474071,3.78519 0.09789,0.10201 2.416918,-0.26466 5.15339,-0.8148 l 4.97542,-1.00027 3.3636,1.17695 c 1.84998,0.64732 3.68759,1.45962 4.08357,1.80512 0.65448,0.57103 0.8139,0.52681 1.75271,-0.48618 1.19743,-1.29206 3.40715,-2.30994 5.014627,-2.30994 1.81607,0 4.50263,1.55484 5.71876,3.30972 0.95589,1.37936 1.10046,1.93984 0.93757,3.63503 -0.23209,2.4154 -1.23901,3.94172 -3.32979,5.04742 -1.50556,0.7962 -4.721267,1.16718 -5.570077,0.64259 -0.22677,-0.14015 -0.53938,0.25434 -0.69468,0.87664 -0.15531,0.6223 -0.55039,1.42897 -0.87796,1.79259 -0.53398,0.59276 -0.36506,0.74936 1.63327,1.51408 1.517637,0.58076 2.755537,0.78228 3.879417,0.63153 2.12474,-0.28498 4.08612,0.38022 5.76498,1.95518 1.5807,1.48288 1.92638,2.60488 1.65922,5.38535 -0.31932,3.32316 -2.86598,5.31145 -6.81174,5.31822 -0.7373,0.001 -1.34054,0.15872 -1.34054,0.34989 0,0.19118 -0.99736,1.35126 -2.216357,2.57797 -2.25432,2.26856 -2.56232,2.5356 -4.38324,3.80031 -0.98189,0.68197 0.2801,0.70345 26.398377,0.44943 15.08626,-0.14672 34.01884,-0.39174 42.07241,-0.54447 z M 65.450316,131.63899 c 2.421458,-0.55269 4.686938,-1.00488 5.034401,-1.00488 2.443573,0 17.914076,-5.03811 21.697916,-7.06612 l 1.43831,-0.77089 h -1.86166 c -2.4787,0 -7.37756,-2.31665 -8.21504,-3.88486 -1.2308,-2.30473 -0.002,-6.798 2.75111,-10.05843 l 1.15069,-1.36282 2.37173,1.29067 c 1.30445,0.70988 2.37173,1.44985 2.37173,1.64438 0,0.19454 0.35957,0.46782 0.79904,0.60731 0.43947,0.13948 1.36754,1.11188 2.06238,2.16088 1.44918,2.18788 1.71343,5.224 0.63469,7.29251 -1.0512,2.01572 -0.36332,1.65326 0.85849,-0.45237 0.89699,-1.54583 1.15643,-2.53187 1.18158,-4.49085 0.055,-4.28743 -2.18734,-6.58422 -8.26915,-8.46977 -2.81705,-0.87338 -2.86621,-0.87432 -7.5789,-0.1453 -4.847354,0.74985 -11.937762,2.38421 -13.05429,3.00905 -0.360216,0.20158 -1.466494,0.12869 -2.630888,-0.17335 -1.105112,-0.28666 -3.264222,-0.60475 -4.798021,-0.70686 -2.888567,-0.19231 -3.417133,-0.55912 -2.616191,-1.81557 0.431724,-0.67725 0.455707,-0.66798 0.294169,0.11374 -0.164124,0.79424 0.114479,0.88357 4.169012,1.33665 2.389689,0.26704 4.420944,0.40947 4.513901,0.31651 0.382814,-0.38281 -0.451438,-8.56083 -0.88546,-8.68 -0.253016,-0.0695 -3.493128,-0.433997 -7.20025,-0.810047 -4.830728,-0.49004 -6.891454,-0.55824 -7.274047,-0.24072 -0.293604,0.24367 -1.436809,1.756587 -2.540457,3.362037 -7.803108,11.35099 -9.886062,15.86767 -9.771434,21.18839 0.06194,2.87501 1.168782,5.74072 2.877084,7.44903 0.644933,0.64493 2.424098,1.65952 3.953701,2.25465 l 2.781095,1.08205 5.676055,-0.98508 c 3.12183,-0.54179 7.657247,-1.43726 10.078704,-1.98994 z m 40.847034,2.66851 c 1.40086,-0.66736 2.82075,-2.63444 3.08732,-4.27712 0.52437,-3.23133 -2.47627,-6.42022 -6.01712,-6.39461 -1.86488,0.0135 -1.88252,0.0262 -1.02986,0.73891 0.47713,0.39885 1.08037,1.12292 1.34054,1.60905 0.75501,1.41077 0.58143,5.50076 -0.30745,7.24425 l -0.78049,1.53088 h 1.37979 c 0.75889,0 1.80616,-0.20312 2.32727,-0.45136 z m 59.63387,-1.30166 c -0.32922,-0.51044 -0.91337,-1.41503 -1.29812,-2.0102 -0.92915,-1.43734 -1.31016,-4.89824 -0.72428,-6.57891 0.58387,-1.67489 0.39926,-1.86386 -1.18129,-1.20918 -3.1128,1.28937 -4.37117,4.58298 -2.88666,7.55544 1.04108,2.08455 2.69409,3.10482 5.09472,3.14454 1.55739,0.0258 1.58039,0.005 0.99563,-0.90169 z M 94.959793,120.36437 c 1.71174,-2.54685 0.92643,-5.90872 -1.99911,-8.55803 -1.83134,-1.65843 -5.0004,-3.42838 -5.56884,-3.11026 -0.87777,0.49122 -2.955,4.00641 -3.44681,5.83285 -0.31931,1.18585 -0.32277,2.13846 -0.012,3.29276 0.37817,1.40442 0.72915,1.75996 2.59387,2.62759 3.15933,1.47 3.21269,1.48369 5.4424,1.39662 1.83023,-0.0715 2.14882,-0.2293 2.99044,-1.48153 z m 127.833147,0.65027 c 5.83674,-0.41127 6.96679,-0.5965 7.07526,-1.15973 0.18447,-0.95788 -0.92563,-1.12816 -7.7492,-1.18866 -8.59899,-0.0762 -7.83702,-0.2105 -7.83702,1.38101 0,1.55288 0.25228,1.96047 1.02896,1.66243 0.29471,-0.11309 3.6616,-0.42586 7.482,-0.69505 z m -119.06653,-4.1074 c 0.56034,-0.28354 1.44201,-1.14351 1.95925,-1.91105 1.92825,-2.86131 0.77035,-6.77898 -2.37561,-8.03775 -2.11251,-0.84526 -3.29265,-0.83262 -5.346657,0.0572 -2.01149,0.87144 -2.44502,1.91375 -1.30308,3.13292 1.18256,1.26253 1.71631,2.89547 1.71631,5.25081 v 2.03552 l 2.165487,-0.006 c 1.19102,-0.003 2.62395,-0.23806 3.1843,-0.5216 z m 65.66779,-12.22546 c -0.12008,-2.12508 0.0284,-3.28362 0.58149,-4.53722 0.40851,-0.925897 0.89264,-1.683457 1.07584,-1.683457 0.1832,0 0.33309,-0.18562 0.33309,-0.41248 0,-0.84735 -1.25601,-0.36639 -2.6292,1.00681 -2.27513,2.275127 -2.45946,5.257177 -0.45844,7.416327 0.54223,0.58508 1.04721,1.06378 1.12218,1.06378 0.075,0 0.0637,-1.28419 -0.025,-2.85376 z m 2.24184,-3.51285 c 0.25144,-2.023687 0.23565,-2.066287 -0.50386,-1.360217 -0.59378,0.566927 -0.78477,1.437677 -0.85949,3.918507 l -0.0961,3.18961 0.59993,-1.82939 c 0.32995,-1.00615 0.71673,-2.76948 0.85949,-3.91851 z M 73.628142,99.139373 c 1.928319,-0.0731 6.475851,0.0105 10.105631,0.18578 6.99818,0.33791 11.13023,-0.0228 12.80108,-1.11764 1.8584,-1.21767 2.76895,-3.37926 2.58279,-6.13144 -0.22386,-3.30968 -1.26641,-5.32858 -3.58105,-6.93472 -1.87373,-1.30019 -5.67349,-2.7488 -7.24141,-2.76069 -0.44041,-0.003 -2.66777,-0.91598 -4.94969,-2.02809 -4.664397,-2.27322 -10.567784,-4.34933 -13.644902,-4.79864 -1.129332,-0.1649 -2.702979,-0.62574 -3.496992,-1.02408 -2.223497,-1.1155 -6.612862,-1.66063 -9.555528,-1.18673 -2.963347,0.47723 -5.265029,1.91671 -7.683448,4.80525 -1.542555,1.84241 -1.721693,2.32243 -2.384282,6.38893 -0.672183,4.12539 -0.673958,4.56889 -0.02875,7.18345 0.897857,3.63836 2.071687,4.85632 5.73056,5.94598 3.745999,1.11561 12.293243,2.0545 15.983824,1.75578 1.020875,-0.0826 3.433852,-0.21004 5.362171,-0.28314 z m 14.176481,-1.66657 c -1.08756,-0.79128 -2.25076,-3.60789 -2.30364,-5.57812 -0.0566,-2.10967 0.78347,-4.78527 1.91584,-6.10172 0.95418,-1.10931 1.01925,-1.12246 3.24532,-0.65553 5.51959,1.15774 7.7442,4.93698 5.70559,9.69286 -0.90308,2.10679 -2.12999,2.8063 -5.41566,3.08766 -1.64251,0.14066 -2.51116,0.0178 -3.14745,-0.44515 z m 6.69784,-1.28618 c 1.84061,-1.4039 2.50033,-5.63337 1.17406,-7.5269 -0.84695,-1.20918 -3.73315,-2.82791 -5.63631,-3.16113 -1.43446,-0.25116 -1.59397,-0.16987 -2.54024,1.29445 -2.02824,3.13859 -1.92383,7.25286 0.2429,9.57126 1.21142,1.29622 1.37303,1.34812 3.37223,1.08292 1.2243,-0.16241 2.63668,-0.68803 3.38736,-1.2606 z m 5.02895,1.69597 c 0.612597,-0.31818 1.572717,-1.19984 2.133597,-1.95926 1.42209,-1.92544 1.35477,-3.96034 -0.20421,-6.17249 -1.31634,-1.86785 -2.654797,-2.74481 -2.058227,-1.34854 0.18286,0.42797 0.41979,1.94007 0.52652,3.36025 0.197577,2.62889 -0.28344,4.57387 -1.47809,5.97672 -0.74291,0.87237 -0.40863,0.91671 1.08041,0.14332 z m 127.321417,-7.24293 c 0.1349,-0.21829 -0.49084,-0.88403 -1.39055,-1.47943 -1.26901,-0.83979 -2.77535,-1.25678 -6.71742,-1.85956 -2.79488,-0.42737 -5.2208,-0.7825 -5.39095,-0.78918 -0.17014,-0.007 -0.30935,1.00872 -0.30935,2.25645 v 2.26861 h 6.78149 c 3.8985,0 6.88576,-0.16873 7.02678,-0.39689 z m -56.81164,-3.53345 c -1.98402,-1.34817 -2.77296,-2.92803 -2.81607,-5.63921 l -0.0348,-2.18597 -0.78507,1.70546 c -0.67583,1.46818 -0.71404,1.89859 -0.2746,3.09356 0.28076,0.76345 0.69608,1.66651 0.92294,2.00681 0.56671,0.85005 2.71231,2.03807 3.7049,2.05139 0.6196,0.008 0.44589,-0.2416 -0.71735,-1.03204 z m 4.61925,-0.50452 c 0.83943,-0.67972 0.85677,-0.8082 0.2923,-2.16549 -0.33003,-0.7936 -0.82676,-3.25264 -1.10383,-5.46453 -0.27708,-2.21189 -0.63877,-4.02163 -0.80377,-4.02163 -2.14669,0 -4.33128,2.39262 -4.78389,5.23945 -0.4644,2.92104 0.0527,4.45375 1.98112,5.87192 1.95293,1.43619 3.13339,1.58055 4.41807,0.54028 z m -88.732757,-19.7029 c 2.11409,-0.34286 4.43426,-0.87237 5.15593,-1.17667 1.69995,-0.71681 4.84507,-4.10935 5.87054,-6.33235 0.88807,-1.92514 1.65303,-2.42378 0.97254,-0.63395 -0.75257,1.97938 -2.10146,3.97926 -3.79529,5.6269 l -1.64555,1.60069 3.25474,-0.28034 c 1.79011,-0.15419 5.946137,-0.64341 9.235617,-1.08717 3.28949,-0.44375 7.34875,-0.9451 9.0206,-1.1141 l 3.0397,-0.30728 -2.00163,-1.44366 c -1.10091,-0.79402 -2.32141,-1.62928 -2.71224,-1.85614 -1.25292,-0.72727 -6.70891,-4.51304 -7.26204,-5.03893 -1.15479,-1.09792 -11.693267,-5.94791 -12.974617,-5.97114 -0.73708,-0.0134 -2.71505,-0.65201 -4.3955,-1.41921 -6.88216,-3.14205 -12.375375,-2.05457 -15.361159,3.04102 -1.839265,3.13892 -1.921603,4.93882 -0.357062,7.8053 0.722841,1.32435 1.669543,2.7911 2.10378,3.25944 0.434238,0.46835 0.789524,1.07159 0.789524,1.34055 0,0.26895 0.14569,0.48901 0.323756,0.48901 0.178067,0 1.245345,0.92403 2.371729,2.0534 2.350162,2.35639 2.541292,2.38939 8.366632,1.44463 z M 210.64441,163.32272 c 1.13582,-2.16704 0.82954,-5.77386 -0.65562,-7.72102 -1.3684,-1.79406 -1.40074,-2.87467 -0.0386,-1.29083 0.56613,0.65829 1.34474,2.1975 1.73025,3.42046 0.59965,1.9023 0.62651,2.50177 0.18591,4.14913 -0.51681,1.93227 -1.12318,2.98904 -1.71512,2.98904 -0.17463,0 0.0473,-0.69605 0.49321,-1.54678 z m 8.17479,-18.56464 c 0,-0.17194 0.50497,-1.23922 1.12215,-2.37173 0.97778,-1.79417 1.11991,-2.51015 1.10478,-5.56512 -0.0148,-2.989 -0.18375,-3.83019 -1.14564,-5.70417 -1.50376,-2.92968 -1.18051,-3.6464 0.37664,-0.83511 1.13802,2.0546 1.22316,2.50974 1.22316,6.53928 0,3.99778 -0.0886,4.48172 -1.15169,6.29024 -1.09894,1.8695 -1.5294,2.33295 -1.5294,1.64661 z m -49.46558,-10.86874 c -2.67853,-1.78865 -4.56859,-4.58696 -4.56859,-6.76398 0,-1.67926 1.44551,-4.07443 3.18755,-5.28166 2.61599,-1.81289 3.38144,-1.46307 4.44099,2.02952 0.92117,3.03647 0.76669,11.71059 -0.20855,11.71059 -0.17265,0 -1.45578,-0.76252 -2.8514,-1.69447 z m 2.85141,-3.56458 c -0.005,-5.29263 -0.25764,-7.05971 -1.18272,-8.28612 l -0.69283,-0.9185 -1.92275,1.27358 c -2.85766,1.89283 -3.60465,5.28525 -1.77773,8.07348 0.70607,1.0776 4.60424,4.29166 5.20514,4.29166 0.20649,0 0.37339,-1.99535 0.37089,-4.4341 z m 41.252,-15.64156 c 0,-0.15228 0.25278,-0.56991 0.56173,-0.92807 0.91928,-1.06567 1.91312,-4.57177 1.91312,-6.74912 0,-2.2334 -0.92425,-6.32903 -1.9126,-8.475287 -0.65367,-1.4195 -0.5734,-2.13883 0.13546,-1.2139 0.22153,0.28906 0.84518,1.82486 1.38588,3.412887 1.4317,4.20482 1.39349,8.66855 -0.10151,11.85864 -0.61132,1.30445 -1.30737,2.37173 -1.54678,2.37173 -0.23941,0 -0.4353,-0.1246 -0.4353,-0.27688 z m 0,-34.543167 c 0,-0.0805 0.75955,-1.28372 1.68789,-2.67393 3.48638,-5.22088 3.00722,-11.94683 -1.17229,-16.4554 -0.6118,-0.65997 -0.69121,-1.47944 -0.10846,-1.11928 1.77262,1.09554 4.54256,7.40688 4.54256,10.35027 0,1.91647 -1.55733,6.30721 -2.74186,7.73044 -0.53373,0.64127 -0.97041,1.31747 -0.97041,1.50265 0,0.18518 -0.27842,0.44354 -0.61871,0.57412 -0.3403,0.13058 -0.61872,0.17159 -0.61872,0.0911 z"
       id="path355" /></g></svg>
